<svg width="79" height="83" viewBox="0 0 79 83" fill="none" xmlns="http://www.w3.org/2000/svg">
<path d="M56.8348 41.5279C56.4586 41.3142 56.4586 40.767 56.8348 40.5447L65.0001 35.8336L76.7651 29.0448C78.116 28.2667 78.5864 26.531 77.7998 25.1801L72.4217 15.869C71.6436 14.5181 69.9079 14.0478 68.557 14.8345L56.792 21.6233L48.6267 26.3344C48.2505 26.5481 47.7802 26.2831 47.7802 25.847V2.83009C47.7802 1.26542 46.5148 0 44.9501 0H34.1941C32.6294 0 31.364 1.26542 31.364 2.83009V25.8385C31.364 26.2745 30.8937 26.5481 30.5175 26.3258L22.3522 21.6147L10.5872 14.8259C9.23629 14.0478 7.5006 14.5096 6.72254 15.8605L1.34453 25.1716C0.566473 26.5225 1.0282 28.2581 2.37912 29.0362L14.144 35.825L22.3094 40.5361C22.6857 40.7499 22.6857 41.2971 22.3094 41.5194L14.144 46.2305L2.37912 53.0193C1.0282 53.7974 0.557923 55.533 1.34453 56.884L6.72254 66.195C7.5006 67.546 9.23629 68.0162 10.5872 67.2296L22.3522 60.4408L30.5175 55.7297C30.8937 55.5159 31.364 55.781 31.364 56.217V79.2254C31.364 80.7901 32.6294 82.0555 34.1941 82.0555H44.9501C46.5148 82.0555 47.7802 80.7901 47.7802 79.2254V56.217C47.7802 55.781 48.2505 55.5074 48.6267 55.7297L56.792 60.4408L68.557 67.2296C69.9079 68.0077 71.6436 67.546 72.4217 66.195L77.7998 56.884C78.5778 55.533 78.116 53.7974 76.7651 53.0193L65.0001 46.2305L56.8348 41.5194V41.5279Z" fill="white"/>
</svg>
