<svg width="24" height="24" viewBox="0 0 24 24" fill="none" xmlns="http://www.w3.org/2000/svg">
<mask id="mask0_3307_558" style="mask-type:alpha" maskUnits="userSpaceOnUse" x="0" y="0" width="24" height="24">
<rect width="24" height="24" fill="#D9D9D9"/>
</mask>
<g mask="url(#mask0_3307_558)">
<path d="M18.707 6.70703L18.666 6.74805C18.6614 6.75265 18.657 6.75808 18.6523 6.7627C18.6477 6.7673 18.6423 6.77175 18.6377 6.77637L18.6104 6.80371C18.6057 6.80836 18.6013 6.81371 18.5967 6.81836C18.592 6.82299 18.5867 6.82739 18.582 6.83203L18.5684 6.8457C18.5637 6.85038 18.5594 6.85567 18.5547 6.86035C18.55 6.86502 18.5447 6.86935 18.54 6.87402L18.3691 7.04492C18.3644 7.04964 18.3602 7.05485 18.3555 7.05957C18.3508 7.06429 18.3455 7.06852 18.3408 7.07324L18.2822 7.13184C18.2775 7.13655 18.2733 7.14176 18.2686 7.14648C18.2638 7.1512 18.2586 7.15543 18.2539 7.16016L18.166 7.24805C18.1611 7.25295 18.1563 7.25876 18.1514 7.26367L18.1367 7.27832C18.1318 7.28324 18.126 7.28804 18.1211 7.29297L17.9277 7.48633C17.9227 7.49134 17.9181 7.49694 17.9131 7.50195C17.9081 7.50697 17.9025 7.51158 17.8975 7.5166L17.7764 7.6377C17.7713 7.64272 17.7668 7.64829 17.7617 7.65332C17.7567 7.65836 17.7511 7.66292 17.7461 7.66797L17.7002 7.71387C17.6952 7.71891 17.6906 7.72444 17.6855 7.72949C17.6805 7.73452 17.675 7.73911 17.6699 7.74414L17.5928 7.82129C17.5877 7.82633 17.5832 7.83187 17.5781 7.83691C17.5731 7.84196 17.5675 7.84651 17.5625 7.85156L17.5156 7.89844C17.5106 7.90346 17.506 7.90904 17.501 7.91406C17.4959 7.91911 17.4904 7.92366 17.4854 7.92871L17.4229 7.99121C17.4178 7.99625 17.4133 8.00179 17.4082 8.00684L17.3926 8.02246C17.3875 8.0275 17.382 8.03206 17.377 8.03711L17.0488 8.36523C17.0436 8.37047 17.0384 8.3766 17.0332 8.38184L17.0176 8.39746C17.0123 8.4027 17.0062 8.40785 17.001 8.41309L16.8916 8.52246C16.8864 8.52771 16.8812 8.53381 16.876 8.53906C16.8707 8.5443 16.8646 8.54945 16.8594 8.55469L16.7656 8.64844C16.7604 8.65369 16.7552 8.65979 16.75 8.66504C16.7447 8.67029 16.7387 8.67541 16.7334 8.68066L16.6553 8.75879C16.65 8.76404 16.6449 8.77014 16.6396 8.77539C16.6344 8.78065 16.6283 8.78576 16.623 8.79102L16.5449 8.86914C16.5397 8.87439 16.5345 8.88049 16.5293 8.88574C16.5241 8.89099 16.5179 8.89612 16.5127 8.90137L16.4189 8.99512C16.4137 9.00036 16.4086 9.00647 16.4033 9.01172L16.3877 9.02734C16.3825 9.03259 16.3763 9.03773 16.3711 9.04297L16.2305 9.18359C16.2252 9.18882 16.2201 9.19497 16.2148 9.2002L16.168 9.24707C16.1628 9.25229 16.1566 9.25748 16.1514 9.2627L16.0732 9.34082C16.0682 9.34587 16.0636 9.3514 16.0586 9.35645L16.0117 9.40332C16.0067 9.40837 16.0011 9.41292 15.9961 9.41797L15.8867 9.52734C15.8817 9.53239 15.8771 9.53792 15.8721 9.54297C15.867 9.54801 15.8615 9.55258 15.8564 9.55762L15.6865 9.72754C15.6815 9.73259 15.6769 9.73812 15.6719 9.74316C15.6668 9.7482 15.6613 9.75278 15.6562 9.75781L15.6406 9.77344C15.6356 9.77849 15.631 9.78402 15.626 9.78906C15.6209 9.79411 15.6154 9.79867 15.6104 9.80371L15.5645 9.84961C15.5594 9.85465 15.5548 9.8602 15.5498 9.86523C15.5448 9.87028 15.5392 9.87484 15.5342 9.87988C15.5291 9.88492 15.5246 9.89048 15.5195 9.89551C15.5145 9.90053 15.5089 9.90514 15.5039 9.91016L15.4736 9.94043C15.4686 9.94546 15.464 9.95103 15.459 9.95605C15.454 9.96109 15.4484 9.96568 15.4434 9.9707L15.3086 10.1055C15.3036 10.1104 15.2989 10.1161 15.2939 10.1211C15.289 10.126 15.2833 10.1308 15.2783 10.1357L15.2197 10.1943C15.2148 10.1993 15.21 10.2051 15.2051 10.21C15.2002 10.2149 15.1944 10.2197 15.1895 10.2246L15.0576 10.3564C15.0529 10.3612 15.0487 10.3664 15.0439 10.3711C15.0392 10.3758 15.034 10.3801 15.0293 10.3848L14.7861 10.6279C14.7814 10.6326 14.7771 10.6379 14.7725 10.6426C14.7678 10.6473 14.7625 10.6516 14.7578 10.6562L14.7441 10.6699C14.7395 10.6746 14.7351 10.6799 14.7305 10.6846C14.7258 10.6892 14.7205 10.6936 14.7158 10.6982L14.6748 10.7393C14.6702 10.7439 14.6657 10.7493 14.6611 10.7539C14.6565 10.7585 14.6511 10.763 14.6465 10.7676L14.5508 10.8633C14.5464 10.8677 14.5425 10.8726 14.5381 10.877C14.5337 10.8813 14.5288 10.8853 14.5244 10.8896L14.4834 10.9307C14.479 10.935 14.4751 10.94 14.4707 10.9443C14.4663 10.9487 14.4614 10.9526 14.457 10.957L14.417 10.9971C14.4126 11.0015 14.4087 11.0064 14.4043 11.0107C14.3999 11.0151 14.395 11.0191 14.3906 11.0234C14.3862 11.0278 14.3823 11.0327 14.3779 11.0371C14.3736 11.0415 14.3686 11.0454 14.3643 11.0498L14.3125 11.1016C14.3082 11.1059 14.3041 11.1109 14.2998 11.1152C14.2955 11.1195 14.2904 11.1236 14.2861 11.1279L14.1465 11.2676C14.1424 11.2717 14.1388 11.2762 14.1348 11.2803C14.1307 11.2843 14.1261 11.2879 14.1221 11.292L13.9404 11.4736C13.9365 11.4776 13.9326 11.4824 13.9287 11.4863L13.9053 11.5098C13.9015 11.5135 13.8973 11.5168 13.8936 11.5205L13.7568 11.6572C13.7531 11.6609 13.7498 11.6653 13.7461 11.6689C13.7424 11.6726 13.738 11.676 13.7344 11.6797L13.7129 11.7012C13.7092 11.7048 13.7058 11.7093 13.7021 11.7129C13.6985 11.7165 13.694 11.72 13.6904 11.7236L13.6582 11.7559C13.6548 11.7593 13.6518 11.7632 13.6484 11.7666L13.6377 11.7773C13.6343 11.7808 13.6304 11.7837 13.627 11.7871L13.6055 11.8086C13.6021 11.812 13.5991 11.8159 13.5957 11.8193C13.5923 11.8228 13.5884 11.8257 13.585 11.8291L13.5439 11.8701C13.5406 11.8735 13.5375 11.8775 13.5342 11.8809C13.5308 11.8842 13.5268 11.8873 13.5234 11.8906L13.5039 11.9102C13.5006 11.9135 13.4974 11.9176 13.4941 11.9209L13.4844 11.9307C13.4811 11.9339 13.4769 11.9372 13.4736 11.9404L13.4639 11.9502C13.4608 11.9533 13.4582 11.9569 13.4551 11.96L13.4453 11.9697C13.4422 11.9728 13.4386 11.9754 13.4355 11.9785L13.416 11.998C13.4129 12.0011 13.4103 12.0047 13.4072 12.0078C13.4041 12.0109 13.4005 12.0135 13.3975 12.0166L13.3604 12.0537C13.3573 12.0568 13.3546 12.0605 13.3516 12.0635C13.3485 12.0665 13.3448 12.0692 13.3418 12.0723L13.3154 12.0986C13.3125 12.1016 13.3096 12.1055 13.3066 12.1084L13.2891 12.126C13.2863 12.1288 13.283 12.131 13.2803 12.1338L13.2539 12.1602C13.2512 12.1629 13.2488 12.1662 13.2461 12.1689C13.2433 12.1717 13.2401 12.174 13.2373 12.1768L13.2207 12.1934C13.218 12.1961 13.2156 12.1994 13.2129 12.2021C13.2102 12.2049 13.2068 12.2072 13.2041 12.21L13.1963 12.2178C13.1936 12.2205 13.1912 12.2239 13.1885 12.2266C13.1858 12.2292 13.1823 12.2317 13.1797 12.2344L13.1328 12.2812C13.1304 12.2837 13.1284 12.2867 13.126 12.2891C13.1235 12.2915 13.1206 12.2935 13.1182 12.2959L13.0254 12.3887C13.0233 12.3908 13.0216 12.3934 13.0195 12.3955C13.0174 12.3976 13.0148 12.3993 13.0127 12.4014L12.9805 12.4336C12.9784 12.4357 12.9767 12.4384 12.9746 12.4404C12.9726 12.4425 12.9698 12.4443 12.9678 12.4463L12.9102 12.5039C12.9084 12.5057 12.9071 12.508 12.9053 12.5098C12.9035 12.5116 12.9012 12.5129 12.8994 12.5146C12.8976 12.5164 12.8963 12.5188 12.8945 12.5205C12.8928 12.5222 12.8904 12.5237 12.8887 12.5254L12.8193 12.5947C12.818 12.5961 12.8168 12.5983 12.8154 12.5996L12.8115 12.6035C12.8102 12.6048 12.8079 12.6061 12.8066 12.6074C12.8055 12.6086 12.8048 12.6102 12.8037 12.6113L12.7998 12.6152C12.7987 12.6164 12.797 12.617 12.7959 12.6182L12.7783 12.6357C12.7772 12.6368 12.7764 12.6386 12.7754 12.6396C12.7743 12.6407 12.7725 12.6415 12.7715 12.6426L12.7461 12.668C12.7453 12.6688 12.7449 12.6701 12.7441 12.6709C12.7434 12.6717 12.742 12.6721 12.7412 12.6729L12.7393 12.6748C12.7385 12.6756 12.738 12.677 12.7373 12.6777C12.7366 12.6785 12.7351 12.679 12.7344 12.6797L12.7266 12.6875L12.7256 12.6895L12.7236 12.6904L12.7178 12.6963L12.7168 12.6982L12.7148 12.6992L12.7109 12.7031V12.7041H12.71L12.709 12.7061H12.708L12 13.4141L5.29297 6.70703L6.70703 5.29297L11.999 10.585L12.002 10.584L12.0215 10.5645C12.0246 10.5614 12.0272 10.5578 12.0303 10.5547L12.04 10.5449C12.0431 10.5418 12.0467 10.5392 12.0498 10.5361L12.0596 10.5264C12.0628 10.5231 12.0661 10.5189 12.0693 10.5156L12.0791 10.5059C12.0824 10.5026 12.0865 10.4994 12.0898 10.4961L12.1094 10.4766C12.1127 10.4732 12.1158 10.4692 12.1191 10.4658C12.1225 10.4625 12.1265 10.4594 12.1299 10.4561L12.1709 10.415C12.1743 10.4116 12.1772 10.4077 12.1807 10.4043C12.1841 10.4009 12.188 10.3979 12.1914 10.3945L12.2129 10.373C12.2163 10.3696 12.2192 10.3657 12.2227 10.3623L12.2334 10.3516C12.2368 10.3482 12.2407 10.3452 12.2441 10.3418L12.2764 10.3096C12.28 10.306 12.2835 10.3015 12.2871 10.2979C12.2907 10.2942 12.2952 10.2908 12.2988 10.2871L12.3203 10.2656C12.324 10.262 12.3274 10.2576 12.3311 10.2539C12.3347 10.2502 12.3391 10.2469 12.3428 10.2432L12.4795 10.1064C12.4832 10.1027 12.4865 10.0985 12.4902 10.0947L12.5137 10.0713C12.5176 10.0674 12.5224 10.0635 12.5264 10.0596L12.708 9.87793C12.7121 9.87388 12.7157 9.86929 12.7197 9.86523C12.7238 9.86117 12.7283 9.85759 12.7324 9.85352L12.8721 9.71387C12.8764 9.70957 12.8805 9.70451 12.8848 9.7002C12.8891 9.69591 12.8941 9.6918 12.8984 9.6875L12.9502 9.63574C12.9546 9.63138 12.9585 9.62644 12.9629 9.62207C12.9673 9.61769 12.9722 9.61376 12.9766 9.60938C12.9809 9.60499 12.9849 9.6001 12.9893 9.5957C12.9936 9.59132 12.9985 9.5874 13.0029 9.58301L13.043 9.54297C13.0474 9.53858 13.0513 9.5337 13.0557 9.5293C13.06 9.52493 13.065 9.52098 13.0693 9.5166L13.1104 9.47559C13.1147 9.47121 13.1187 9.4663 13.123 9.46191C13.1274 9.45752 13.1323 9.45362 13.1367 9.44922L13.2324 9.35352C13.237 9.34892 13.2415 9.34347 13.2461 9.33887C13.2507 9.33428 13.2561 9.32979 13.2607 9.3252L13.3018 9.28418C13.3064 9.27955 13.3108 9.27418 13.3154 9.26953C13.3201 9.26488 13.3254 9.26052 13.3301 9.25586L13.3438 9.24219C13.3484 9.23752 13.3527 9.23221 13.3574 9.22754C13.3621 9.22286 13.3674 9.21856 13.3721 9.21387L13.6152 8.9707C13.6199 8.966 13.6242 8.96077 13.6289 8.95605C13.6336 8.95134 13.6388 8.94711 13.6436 8.94238L13.7754 8.81055C13.7803 8.80563 13.7851 8.79984 13.79 8.79492C13.7949 8.79001 13.8007 8.78519 13.8057 8.78027L13.8643 8.72168C13.8692 8.71675 13.874 8.71099 13.8789 8.70605C13.8839 8.70109 13.8896 8.69638 13.8945 8.69141L14.0293 8.55664C14.0343 8.55162 14.0389 8.54605 14.0439 8.54102C14.049 8.53599 14.0545 8.53139 14.0596 8.52637L14.0898 8.49609C14.0949 8.49107 14.0995 8.48549 14.1045 8.48047C14.1095 8.47544 14.1151 8.47086 14.1201 8.46582C14.1252 8.46078 14.1297 8.45524 14.1348 8.4502C14.1398 8.44516 14.1453 8.44059 14.1504 8.43555L14.1963 8.38965C14.2013 8.38461 14.2059 8.37907 14.2109 8.37402C14.216 8.36898 14.2215 8.36442 14.2266 8.35938L14.2422 8.34375C14.2472 8.33871 14.2518 8.33317 14.2568 8.32812C14.2619 8.32308 14.2674 8.31852 14.2725 8.31348L14.4424 8.14355C14.4474 8.13852 14.452 8.13297 14.457 8.12793C14.4621 8.12289 14.4676 8.11833 14.4727 8.11328L14.582 8.00391C14.5871 7.99886 14.5916 7.99333 14.5967 7.98828L14.6436 7.94141C14.6486 7.93636 14.6541 7.9318 14.6592 7.92676L14.7373 7.84863C14.7425 7.84342 14.7477 7.83725 14.7529 7.83203L14.7998 7.78516C14.805 7.77993 14.8112 7.77476 14.8164 7.76953L14.957 7.62891C14.9623 7.62366 14.9674 7.61755 14.9727 7.6123L14.9883 7.59668C14.9935 7.59144 14.9996 7.5863 15.0049 7.58105L15.0986 7.4873C15.1039 7.48206 15.109 7.47595 15.1143 7.4707C15.1195 7.46545 15.1256 7.46033 15.1309 7.45508L15.209 7.37695C15.2142 7.3717 15.2194 7.36561 15.2246 7.36035C15.2299 7.3551 15.236 7.34998 15.2412 7.34473L15.3193 7.2666C15.3246 7.26135 15.3297 7.25525 15.335 7.25C15.3402 7.24475 15.3463 7.23962 15.3516 7.23438L15.4453 7.14062C15.4505 7.13539 15.4557 7.12926 15.4609 7.12402C15.4662 7.11878 15.4723 7.11365 15.4775 7.1084L15.5869 6.99902C15.5922 6.99379 15.5973 6.98766 15.6025 6.98242L15.6182 6.9668C15.6234 6.96156 15.6295 6.9564 15.6348 6.95117L15.9629 6.62305C15.9679 6.618 15.9725 6.61247 15.9775 6.60742L15.9932 6.5918C15.9982 6.58675 16.0037 6.58219 16.0088 6.57715L16.0713 6.51465C16.0763 6.5096 16.0809 6.50407 16.0859 6.49902C16.091 6.494 16.0965 6.4894 16.1016 6.48438L16.1484 6.4375C16.1535 6.43245 16.158 6.42692 16.1631 6.42188C16.1681 6.41683 16.1737 6.41227 16.1787 6.40723L16.2559 6.33008C16.2609 6.32505 16.2655 6.31948 16.2705 6.31445C16.2756 6.30941 16.2811 6.30485 16.2861 6.2998L16.332 6.25391C16.3371 6.24886 16.3416 6.24332 16.3467 6.23828C16.3517 6.23325 16.3573 6.22866 16.3623 6.22363L16.4834 6.10254C16.4884 6.09752 16.493 6.09193 16.498 6.08691C16.5031 6.0819 16.5087 6.07728 16.5137 6.07227L16.707 5.87891C16.712 5.87398 16.7168 5.8682 16.7217 5.86328L16.7363 5.84863C16.7412 5.84372 16.747 5.83889 16.752 5.83398L16.8398 5.74609C16.8446 5.74137 16.8488 5.73616 16.8535 5.73145C16.8582 5.72672 16.8635 5.72249 16.8682 5.71777L16.9268 5.65918C16.9315 5.65446 16.9357 5.64925 16.9404 5.64453C16.9452 5.63981 16.9504 5.63558 16.9551 5.63086L17.126 5.45996C17.1307 5.45528 17.135 5.44998 17.1396 5.44531C17.1443 5.44063 17.1496 5.43631 17.1543 5.43164L17.168 5.41797C17.1726 5.41333 17.177 5.40795 17.1816 5.40332C17.1863 5.39867 17.1916 5.39429 17.1963 5.38965L17.2236 5.3623C17.2283 5.35769 17.2327 5.35227 17.2373 5.34766C17.2419 5.34304 17.2473 5.33859 17.252 5.33398L17.293 5.29297L18.707 6.70703Z" fill="black"/>
<path d="M18.707 12.707L18.666 12.748C18.6614 12.7527 18.657 12.7581 18.6523 12.7627C18.6477 12.7673 18.6423 12.7717 18.6377 12.7764L18.6104 12.8037C18.6057 12.8084 18.6013 12.8137 18.5967 12.8184C18.592 12.823 18.5867 12.8274 18.582 12.832L18.5684 12.8457C18.5637 12.8504 18.5594 12.8557 18.5547 12.8604C18.55 12.865 18.5447 12.8693 18.54 12.874L18.3691 13.0449C18.3644 13.0496 18.3602 13.0548 18.3555 13.0596C18.3508 13.0643 18.3455 13.0685 18.3408 13.0732L18.2822 13.1318C18.2775 13.1365 18.2733 13.1418 18.2686 13.1465C18.2638 13.1512 18.2586 13.1554 18.2539 13.1602L18.166 13.248C18.1611 13.253 18.1563 13.2588 18.1514 13.2637L18.1367 13.2783C18.1318 13.2832 18.126 13.288 18.1211 13.293L17.9277 13.4863C17.9227 13.4913 17.9181 13.4969 17.9131 13.502C17.9081 13.507 17.9025 13.5116 17.8975 13.5166L17.7764 13.6377C17.7713 13.6427 17.7668 13.6483 17.7617 13.6533C17.7567 13.6584 17.7511 13.6629 17.7461 13.668L17.7002 13.7139C17.6952 13.7189 17.6906 13.7244 17.6855 13.7295C17.6805 13.7345 17.675 13.7391 17.6699 13.7441L17.5928 13.8213C17.5877 13.8263 17.5832 13.8319 17.5781 13.8369C17.5731 13.842 17.5675 13.8465 17.5625 13.8516L17.5156 13.8984C17.5106 13.9035 17.506 13.909 17.501 13.9141C17.4959 13.9191 17.4904 13.9237 17.4854 13.9287L17.4229 13.9912C17.4178 13.9963 17.4133 14.0018 17.4082 14.0068L17.3926 14.0225C17.3875 14.0275 17.382 14.0321 17.377 14.0371L17.0488 14.3652C17.0436 14.3705 17.0384 14.3766 17.0332 14.3818L17.0176 14.3975C17.0123 14.4027 17.0062 14.4078 17.001 14.4131L16.8916 14.5225C16.8864 14.5277 16.8812 14.5338 16.876 14.5391C16.8707 14.5443 16.8646 14.5495 16.8594 14.5547L16.7656 14.6484C16.7604 14.6537 16.7552 14.6598 16.75 14.665C16.7447 14.6703 16.7387 14.6754 16.7334 14.6807L16.6553 14.7588C16.65 14.764 16.6449 14.7701 16.6396 14.7754C16.6344 14.7806 16.6283 14.7858 16.623 14.791L16.5449 14.8691C16.5397 14.8744 16.5345 14.8805 16.5293 14.8857C16.5241 14.891 16.5179 14.8961 16.5127 14.9014L16.4189 14.9951C16.4137 15.0004 16.4086 15.0065 16.4033 15.0117L16.3877 15.0273C16.3825 15.0326 16.3763 15.0377 16.3711 15.043L16.2305 15.1836C16.2252 15.1888 16.2201 15.195 16.2148 15.2002L16.168 15.2471C16.1628 15.2523 16.1566 15.2575 16.1514 15.2627L16.0732 15.3408C16.0682 15.3459 16.0636 15.3514 16.0586 15.3564L16.0117 15.4033C16.0067 15.4084 16.0011 15.4129 15.9961 15.418L15.8867 15.5273C15.8817 15.5324 15.8771 15.5379 15.8721 15.543C15.867 15.548 15.8615 15.5526 15.8564 15.5576L15.6865 15.7275C15.6815 15.7326 15.6769 15.7381 15.6719 15.7432C15.6668 15.7482 15.6613 15.7528 15.6562 15.7578L15.6406 15.7734C15.6356 15.7785 15.631 15.784 15.626 15.7891C15.6209 15.7941 15.6154 15.7987 15.6104 15.8037L15.5645 15.8496C15.5594 15.8547 15.5548 15.8602 15.5498 15.8652C15.5448 15.8703 15.5392 15.8748 15.5342 15.8799C15.5291 15.8849 15.5246 15.8905 15.5195 15.8955C15.5145 15.9005 15.5089 15.9051 15.5039 15.9102L15.4736 15.9404C15.4686 15.9455 15.464 15.951 15.459 15.9561C15.454 15.9611 15.4484 15.9657 15.4434 15.9707L15.3086 16.1055C15.3036 16.1104 15.2989 16.1161 15.2939 16.1211C15.289 16.126 15.2833 16.1308 15.2783 16.1357L15.2197 16.1943C15.2148 16.1993 15.21 16.2051 15.2051 16.21C15.2002 16.2149 15.1944 16.2197 15.1895 16.2246L15.0576 16.3564C15.0529 16.3612 15.0487 16.3664 15.0439 16.3711C15.0392 16.3758 15.034 16.3801 15.0293 16.3848L14.7861 16.6279C14.7814 16.6326 14.7771 16.6379 14.7725 16.6426C14.7678 16.6473 14.7625 16.6516 14.7578 16.6562L14.7441 16.6699C14.7395 16.6746 14.7351 16.6799 14.7305 16.6846C14.7258 16.6892 14.7205 16.6936 14.7158 16.6982L14.6748 16.7393C14.6702 16.7439 14.6657 16.7493 14.6611 16.7539C14.6565 16.7585 14.6511 16.763 14.6465 16.7676L14.5508 16.8633C14.5464 16.8677 14.5425 16.8726 14.5381 16.877C14.5337 16.8813 14.5288 16.8853 14.5244 16.8896L14.4834 16.9307C14.479 16.935 14.4751 16.94 14.4707 16.9443C14.4663 16.9487 14.4614 16.9526 14.457 16.957L14.417 16.9971C14.4126 17.0015 14.4087 17.0064 14.4043 17.0107C14.3999 17.0151 14.395 17.0191 14.3906 17.0234C14.3862 17.0278 14.3823 17.0327 14.3779 17.0371C14.3736 17.0415 14.3686 17.0454 14.3643 17.0498L14.3125 17.1016C14.3082 17.1059 14.3041 17.1109 14.2998 17.1152C14.2955 17.1195 14.2904 17.1236 14.2861 17.1279L14.1465 17.2676C14.1424 17.2717 14.1388 17.2762 14.1348 17.2803C14.1307 17.2843 14.1261 17.2879 14.1221 17.292L13.9404 17.4736C13.9365 17.4776 13.9326 17.4824 13.9287 17.4863L13.9053 17.5098C13.9015 17.5135 13.8973 17.5168 13.8936 17.5205L13.7568 17.6572C13.7531 17.6609 13.7498 17.6653 13.7461 17.6689C13.7424 17.6726 13.738 17.676 13.7344 17.6797L13.7129 17.7012C13.7092 17.7048 13.7058 17.7093 13.7021 17.7129C13.6985 17.7165 13.694 17.72 13.6904 17.7236L13.6582 17.7559C13.6548 17.7593 13.6518 17.7632 13.6484 17.7666L13.6377 17.7773C13.6343 17.7808 13.6304 17.7837 13.627 17.7871L13.6055 17.8086C13.6021 17.812 13.5991 17.8159 13.5957 17.8193C13.5923 17.8228 13.5884 17.8257 13.585 17.8291L13.5439 17.8701C13.5406 17.8735 13.5375 17.8775 13.5342 17.8809C13.5308 17.8842 13.5268 17.8873 13.5234 17.8906L13.5039 17.9102C13.5006 17.9135 13.4974 17.9176 13.4941 17.9209L13.4844 17.9307C13.4811 17.9339 13.4769 17.9372 13.4736 17.9404L13.4639 17.9502C13.4608 17.9533 13.4582 17.9569 13.4551 17.96L13.4453 17.9697C13.4422 17.9728 13.4386 17.9754 13.4355 17.9785L13.416 17.998C13.4129 18.0011 13.4103 18.0047 13.4072 18.0078C13.4041 18.0109 13.4005 18.0135 13.3975 18.0166L13.3604 18.0537C13.3573 18.0568 13.3546 18.0605 13.3516 18.0635C13.3485 18.0665 13.3448 18.0692 13.3418 18.0723L13.3154 18.0986C13.3125 18.1016 13.3096 18.1055 13.3066 18.1084L13.2891 18.126C13.2863 18.1288 13.283 18.131 13.2803 18.1338L13.2539 18.1602C13.2512 18.1629 13.2488 18.1662 13.2461 18.1689C13.2433 18.1717 13.2401 18.174 13.2373 18.1768L13.2207 18.1934C13.218 18.1961 13.2156 18.1994 13.2129 18.2021C13.2102 18.2049 13.2068 18.2072 13.2041 18.21L13.1963 18.2178C13.1936 18.2205 13.1912 18.2239 13.1885 18.2266C13.1858 18.2292 13.1823 18.2317 13.1797 18.2344L13.1328 18.2812C13.1304 18.2837 13.1284 18.2867 13.126 18.2891C13.1235 18.2915 13.1206 18.2935 13.1182 18.2959L13.0254 18.3887C13.0233 18.3908 13.0216 18.3934 13.0195 18.3955C13.0174 18.3976 13.0148 18.3993 13.0127 18.4014L12.9805 18.4336C12.9784 18.4357 12.9767 18.4384 12.9746 18.4404C12.9726 18.4425 12.9698 18.4443 12.9678 18.4463L12.9102 18.5039C12.9084 18.5057 12.9071 18.508 12.9053 18.5098C12.9035 18.5116 12.9012 18.5129 12.8994 18.5146C12.8976 18.5164 12.8963 18.5188 12.8945 18.5205C12.8928 18.5222 12.8904 18.5237 12.8887 18.5254L12.8193 18.5947C12.818 18.5961 12.8168 18.5983 12.8154 18.5996L12.8115 18.6035C12.8102 18.6048 12.8079 18.6061 12.8066 18.6074C12.8055 18.6086 12.8048 18.6102 12.8037 18.6113L12.7998 18.6152C12.7987 18.6164 12.797 18.617 12.7959 18.6182L12.7783 18.6357C12.7772 18.6368 12.7764 18.6386 12.7754 18.6396C12.7743 18.6407 12.7725 18.6415 12.7715 18.6426L12.7461 18.668C12.7453 18.6688 12.7449 18.6701 12.7441 18.6709C12.7434 18.6717 12.742 18.6721 12.7412 18.6729L12.7393 18.6748C12.7385 18.6756 12.738 18.677 12.7373 18.6777C12.7366 18.6785 12.7351 18.679 12.7344 18.6797L12.7266 18.6875L12.7256 18.6895L12.7236 18.6904L12.7178 18.6963L12.7168 18.6982L12.7148 18.6992L12.7109 18.7031V18.7041H12.71L12.709 18.7061H12.708L12 19.4141L5.29297 12.707L6.70703 11.293L11.999 16.585L12.002 16.584L12.0215 16.5645C12.0246 16.5614 12.0272 16.5578 12.0303 16.5547L12.04 16.5449C12.0431 16.5418 12.0467 16.5392 12.0498 16.5361L12.0596 16.5264C12.0628 16.5231 12.0661 16.5189 12.0693 16.5156L12.0791 16.5059C12.0824 16.5026 12.0865 16.4994 12.0898 16.4961L12.1094 16.4766C12.1127 16.4732 12.1158 16.4692 12.1191 16.4658C12.1225 16.4625 12.1265 16.4594 12.1299 16.4561L12.1709 16.415C12.1743 16.4116 12.1772 16.4077 12.1807 16.4043C12.1841 16.4009 12.188 16.3979 12.1914 16.3945L12.2129 16.373C12.2163 16.3696 12.2192 16.3657 12.2227 16.3623L12.2334 16.3516C12.2368 16.3482 12.2407 16.3452 12.2441 16.3418L12.2764 16.3096C12.28 16.306 12.2835 16.3015 12.2871 16.2979C12.2907 16.2942 12.2952 16.2908 12.2988 16.2871L12.3203 16.2656C12.324 16.262 12.3274 16.2576 12.3311 16.2539C12.3347 16.2502 12.3391 16.2469 12.3428 16.2432L12.4795 16.1064C12.4832 16.1027 12.4865 16.0985 12.4902 16.0947L12.5137 16.0713C12.5176 16.0674 12.5224 16.0635 12.5264 16.0596L12.708 15.8779C12.7121 15.8739 12.7157 15.8693 12.7197 15.8652C12.7238 15.8612 12.7283 15.8576 12.7324 15.8535L12.8721 15.7139C12.8764 15.7096 12.8805 15.7045 12.8848 15.7002C12.8891 15.6959 12.8941 15.6918 12.8984 15.6875L12.9502 15.6357C12.9546 15.6314 12.9585 15.6264 12.9629 15.6221C12.9673 15.6177 12.9722 15.6138 12.9766 15.6094C12.9809 15.605 12.9849 15.6001 12.9893 15.5957C12.9936 15.5913 12.9985 15.5874 13.0029 15.583L13.043 15.543C13.0474 15.5386 13.0513 15.5337 13.0557 15.5293C13.06 15.5249 13.065 15.521 13.0693 15.5166L13.1104 15.4756C13.1147 15.4712 13.1187 15.4663 13.123 15.4619C13.1274 15.4575 13.1323 15.4536 13.1367 15.4492L13.2324 15.3535C13.237 15.3489 13.2415 15.3435 13.2461 15.3389C13.2507 15.3343 13.2561 15.3298 13.2607 15.3252L13.3018 15.2842C13.3064 15.2795 13.3108 15.2742 13.3154 15.2695C13.3201 15.2649 13.3254 15.2605 13.3301 15.2559L13.3438 15.2422C13.3484 15.2375 13.3527 15.2322 13.3574 15.2275C13.3621 15.2229 13.3674 15.2186 13.3721 15.2139L13.6152 14.9707C13.6199 14.966 13.6242 14.9608 13.6289 14.9561C13.6336 14.9513 13.6388 14.9471 13.6436 14.9424L13.7754 14.8105C13.7803 14.8056 13.7851 14.7998 13.79 14.7949C13.7949 14.79 13.8007 14.7852 13.8057 14.7803L13.8643 14.7217C13.8692 14.7167 13.874 14.711 13.8789 14.7061C13.8839 14.7011 13.8896 14.6964 13.8945 14.6914L14.0293 14.5566C14.0343 14.5516 14.0389 14.546 14.0439 14.541C14.049 14.536 14.0545 14.5314 14.0596 14.5264L14.0898 14.4961C14.0949 14.4911 14.0995 14.4855 14.1045 14.4805C14.1095 14.4754 14.1151 14.4709 14.1201 14.4658C14.1252 14.4608 14.1297 14.4552 14.1348 14.4502C14.1398 14.4452 14.1453 14.4406 14.1504 14.4355L14.1963 14.3896C14.2013 14.3846 14.2059 14.3791 14.2109 14.374C14.216 14.369 14.2215 14.3644 14.2266 14.3594L14.2422 14.3438C14.2472 14.3387 14.2518 14.3332 14.2568 14.3281C14.2619 14.3231 14.2674 14.3185 14.2725 14.3135L14.4424 14.1436C14.4474 14.1385 14.452 14.133 14.457 14.1279C14.4621 14.1229 14.4676 14.1183 14.4727 14.1133L14.582 14.0039C14.5871 13.9989 14.5916 13.9933 14.5967 13.9883L14.6436 13.9414C14.6486 13.9364 14.6541 13.9318 14.6592 13.9268L14.7373 13.8486C14.7425 13.8434 14.7477 13.8372 14.7529 13.832L14.7998 13.7852C14.805 13.7799 14.8112 13.7748 14.8164 13.7695L14.957 13.6289C14.9623 13.6237 14.9674 13.6175 14.9727 13.6123L14.9883 13.5967C14.9935 13.5914 14.9996 13.5863 15.0049 13.5811L15.0986 13.4873C15.1039 13.4821 15.109 13.4759 15.1143 13.4707C15.1195 13.4655 15.1256 13.4603 15.1309 13.4551L15.209 13.377C15.2142 13.3717 15.2194 13.3656 15.2246 13.3604C15.2299 13.3551 15.236 13.35 15.2412 13.3447L15.3193 13.2666C15.3246 13.2613 15.3297 13.2553 15.335 13.25C15.3402 13.2448 15.3463 13.2396 15.3516 13.2344L15.4453 13.1406C15.4505 13.1354 15.4557 13.1293 15.4609 13.124C15.4662 13.1188 15.4723 13.1136 15.4775 13.1084L15.5869 12.999C15.5922 12.9938 15.5973 12.9877 15.6025 12.9824L15.6182 12.9668C15.6234 12.9616 15.6295 12.9564 15.6348 12.9512L15.9629 12.623C15.9679 12.618 15.9725 12.6125 15.9775 12.6074L15.9932 12.5918C15.9982 12.5867 16.0037 12.5822 16.0088 12.5771L16.0713 12.5146C16.0763 12.5096 16.0809 12.5041 16.0859 12.499C16.091 12.494 16.0965 12.4894 16.1016 12.4844L16.1484 12.4375C16.1535 12.4325 16.158 12.4269 16.1631 12.4219C16.1681 12.4168 16.1737 12.4123 16.1787 12.4072L16.2559 12.3301C16.2609 12.325 16.2655 12.3195 16.2705 12.3145C16.2756 12.3094 16.2811 12.3048 16.2861 12.2998L16.332 12.2539C16.3371 12.2489 16.3416 12.2433 16.3467 12.2383C16.3517 12.2332 16.3573 12.2287 16.3623 12.2236L16.4834 12.1025C16.4884 12.0975 16.493 12.0919 16.498 12.0869C16.5031 12.0819 16.5087 12.0773 16.5137 12.0723L16.707 11.8789C16.712 11.874 16.7168 11.8682 16.7217 11.8633L16.7363 11.8486C16.7412 11.8437 16.747 11.8389 16.752 11.834L16.8398 11.7461C16.8446 11.7414 16.8488 11.7362 16.8535 11.7314C16.8582 11.7267 16.8635 11.7225 16.8682 11.7178L16.9268 11.6592C16.9315 11.6545 16.9357 11.6492 16.9404 11.6445C16.9452 11.6398 16.9504 11.6356 16.9551 11.6309L17.126 11.46C17.1307 11.4553 17.135 11.45 17.1396 11.4453C17.1443 11.4406 17.1496 11.4363 17.1543 11.4316L17.168 11.418C17.1726 11.4133 17.177 11.408 17.1816 11.4033C17.1863 11.3987 17.1916 11.3943 17.1963 11.3896L17.2236 11.3623C17.2283 11.3577 17.2327 11.3523 17.2373 11.3477C17.2419 11.343 17.2473 11.3386 17.252 11.334L17.293 11.293L18.707 12.707Z" fill="black"/>
</g>
</svg>
